<svg xmlns="http://www.w3.org/2000/svg" viewBox="0 0 560 560">
    <defs>
        <linearGradient id="starGrad" x1="0" y1="0" x2="0" y2="560" gradientUnits="userSpaceOnUse">
            <stop offset="0%" stop-color="#5baee0" />
            <stop offset="100%" stop-color="#2060a8" />
        </linearGradient>
    </defs>
    <path fill-rule="evenodd" fill="url(#starGrad)" d="
      M 280,41
      L 339,178 L 478,123
      L 423,262 L 560,321
      L 423,380 L 478,519
      L 339,464 L 312,454 L 312,314 a 12,12 0 0,0 -12,-12 L 236,302 a 8,8 0 0,0 -8,8 L 228,320 a 8,8 0 0,0 8,8 L 248,328 L 248,454
      L 221,464 L 82,519
      L 137,380 L 0,321
      L 137,262 L 82,123
      L 221,178 Z

      M 235,232 a 45,45 0 1,0 90,0 a 45,45 0 1,0 -90,0 Z
    " />
</svg>
